<?xml version="1.0" encoding="UTF-8"?>
<svg version="1.1" xmlns="http://www.w3.org/2000/svg" width="5000" height="4566">
<path d="M0 0 C0.57411621 0.63059326 1.14823242 1.26118652 1.73974609 1.91088867 C2.38975586 2.61375 3.03976562 3.31661133 3.70947266 4.04077148 C4.72605957 5.17337402 4.72605957 5.17337402 5.76318359 6.32885742 C6.46668945 7.09552734 7.17019531 7.86219727 7.89501953 8.65209961 C9.31632995 10.2030325 10.73305158 11.75818389 12.14501953 13.31762695 C13.9143449 15.26943296 15.69687565 17.2072987 17.48974609 19.13745117 C20.06107633 21.91156111 22.62615034 24.68812418 25.13818359 27.51635742 C25.74887695 28.16233887 26.35957031 28.80832031 26.98876953 29.47387695 C30.10754662 33.88848396 31.82703548 38.68665453 33.76318359 43.71166992 C34.41287109 45.36756638 34.41287109 45.36756638 35.07568359 47.05691528 C36.43912363 50.53986301 37.78958866 54.02763816 39.13818359 57.51635742 C39.97903891 59.67760328 40.82017773 61.83873887 41.66162109 63.99975586 C44.170239 70.45733553 46.65679926 76.92327199 49.13818359 83.39135742 C49.79581696 85.10412872 49.79581696 85.10412872 50.46673584 86.85150146 C56.8054804 103.36519728 63.11628196 119.88400038 69.13818359 136.51635742 C69.46236267 137.41068481 69.78654175 138.30501221 70.12054443 139.22644043 C72.90332464 146.90422597 75.67861247 154.58469956 78.45068359 162.26635742 C78.84394836 163.35507141 79.23721313 164.4437854 79.64239502 165.56549072 C80.7849606 168.73067305 81.9248549 171.89680503 83.06396484 175.06323242 C83.400103 175.99370392 83.73624115 176.92417542 84.08256531 177.88284302 C85.11429054 180.75622114 86.13022381 183.63455611 87.13818359 186.51635742 C87.53007874 187.63392426 87.92197388 188.75149109 88.32574463 189.90292358 C91.76825717 199.95105014 94.54084309 210.12168485 97.20849609 220.39916992 C97.68719545 222.22768943 98.16626541 224.05611194 98.64567566 225.88444519 C101.28373807 235.96269883 103.88736279 246.04985135 106.48657227 256.13818359 C106.88960713 257.70244725 106.88960713 257.70244725 107.30078411 259.29831219 C108.66589807 264.59822972 110.02915844 269.89861612 111.39024353 275.1995697 C114.26532466 286.3794111 117.21042548 297.53523796 120.26727295 308.66670227 C133.74321195 357.76542054 140.36359955 406.60402029 145.31074142 457.22642899 C146.16377915 465.89604142 147.11133193 474.55392383 148.08574295 483.21063042 C148.76175734 489.22009796 149.42699505 495.23077993 150.09379578 501.24127579 C150.24699169 502.6204296 150.4005993 503.99953774 150.55464172 505.37859726 C151.0485978 509.8045729 151.52512787 514.23215522 151.99365234 518.66088867 C152.11175766 519.7097525 152.22986298 520.75861633 152.35154724 521.83926392 C154.05204259 538.29142003 152.8991582 554.05993731 150.65380859 570.39135742 C150.39368955 572.33698889 150.13424284 574.28271034 149.87542725 576.22851562 C149.33504963 580.27005737 148.78613103 584.31031862 148.23095703 588.34985352 C147.52355357 593.50275614 146.83884274 598.65838346 146.16052628 603.81518555 C145.63110855 607.81951741 145.08930953 611.82210082 144.54387665 615.82427979 C144.28646057 617.72458816 144.03290418 619.62542387 143.7834549 621.52679443 C141.31652472 640.23378144 141.31652472 640.23378144 137.13818359 648.51635742 C136.42480835 650.08522705 136.42480835 650.08522705 135.69702148 651.68579102 C135.25608154 652.5863623 134.8151416 653.48693359 134.36083984 654.41479492 C133.59984985 655.97955566 133.59984985 655.97955566 132.82348633 657.57592773 C132.28796143 658.67001953 131.75243652 659.76411133 131.20068359 660.89135742 C130.04526445 663.26812499 128.89102243 665.64539904 127.73974609 668.02416992 C127.29782173 668.9371283 127.29782173 668.9371283 126.8469696 669.86853027 C124.70243454 674.31313387 122.60661374 678.77877927 120.53662109 683.25854492 C120.09874519 684.2061116 120.09874519 684.2061116 119.65202332 685.17282104 C118.2469602 688.21770129 116.84760627 691.26505996 115.45288086 694.31469727 C114.9455542 695.41765137 114.43822754 696.52060547 113.91552734 697.65698242 C113.25411743 699.10379395 113.25411743 699.10379395 112.5793457 700.57983398 C111.86597046 702.03341309 111.86597046 702.03341309 111.13818359 703.51635742 C110.64684282 704.69678791 110.15550204 705.87721839 109.64927214 707.09341949 C108.34449466 709.33243187 107.61534515 710.32208693 105.1953936 711.30734063 C102.63186412 711.77994408 100.11958255 712.02880944 97.51960468 712.21988773 C96.52819236 712.31902762 95.53678004 712.4181675 94.51532492 712.52031162 C91.16841729 712.84682089 87.81920527 713.12596367 84.46809387 713.40577698 C82.05232148 713.63159772 79.63681761 713.86030662 77.22156924 714.09166473 C71.95608653 714.58933663 66.68933124 715.06642934 61.42040253 715.52569389 C53.58233795 716.20900978 45.74805587 716.92994649 37.91410131 717.65869698 C24.72013943 718.8849792 11.52356166 720.08055151 -1.67476463 721.25885201 C-14.78818749 722.42967911 -27.9002548 723.61421151 -41.0107975 724.81687737 C-41.82735212 724.89177451 -42.64390673 724.96667166 -43.48520542 725.04383842 C-47.63365345 725.42441978 -51.78207908 725.80524478 -55.93049613 726.18616366 C-85.36186249 728.88819128 -114.79592526 731.55972704 -144.23168945 734.21337891 C-172.66894583 736.77708833 -201.10495051 739.35401902 -229.53930664 741.94970703 C-230.41083874 742.02926104 -231.28237085 742.10881506 -232.18031301 742.19077979 C-241.81055454 743.06985174 -251.44076097 743.94930785 -261.07095182 744.82893479 C-278.21377789 746.39474469 -295.35676726 747.95876448 -312.49983215 749.5219574 C-313.33278076 749.597913 -314.16572938 749.6738686 -315.02391885 749.75212589 C-340.25870493 752.05316915 -365.49424203 754.34582579 -390.73051453 756.63050842 C-391.50400287 756.70053834 -392.27749122 756.77056826 -393.07441861 756.84272029 C-407.06669027 758.10953369 -421.05900092 759.37591661 -435.051548 760.63968468 C-435.71371628 760.69949235 -436.37588455 760.75930002 -437.05811853 760.82092004 C-440.34276377 761.11759024 -443.62741052 761.4142438 -446.91205982 761.71086907 C-457.01807183 762.6239086 -467.1235595 763.54265636 -477.2289336 764.4627263 C-484.66837418 765.13895683 -492.10851063 765.80674249 -499.54937967 766.46702017 C-505.37616798 766.98431145 -511.2024528 767.5070586 -517.02844949 768.03318888 C-520.48657097 768.34521858 -523.94486256 768.65480015 -527.40383156 768.9573021 C-554.46576424 771.33341699 -581.16879648 775.2654199 -607.97619629 779.6340332 C-615.1421445 780.79716983 -622.31269571 781.93156977 -629.48274803 783.06908131 C-635.04046413 783.95107813 -640.59741739 784.83695951 -646.15200806 785.7384491 C-667.47423375 789.18641004 -688.75758929 791.82948726 -710.28303719 793.62977028 C-714.17029447 793.95521019 -718.05694746 794.28739305 -721.94346619 794.62150574 C-727.60068874 795.1072842 -733.2581114 795.59064795 -738.91571045 796.07202148 C-754.26490755 797.37859532 -769.61299289 798.69775835 -784.95947266 800.03588867 C-785.75326891 800.10506138 -786.54706516 800.17423409 -787.36491585 800.24550295 C-811.39162224 802.34138196 -835.39675992 804.6098839 -859.39182401 807.04091096 C-861.73074776 807.27785711 -864.06971165 807.51440292 -866.4086895 807.75081444 C-869.51328346 808.06461476 -872.61787036 808.37848473 -875.7224474 808.69245243 C-876.48788132 808.7698557 -877.25331525 808.84725897 -878.04194415 808.92700779 C-879.58372614 809.08291852 -881.12550717 809.23883876 -882.66728723 809.3947686 C-928.77639347 814.05715262 -974.78061425 818.57252616 -1021.11181641 820.39135742 C-1022.04516563 820.42800507 -1022.97851486 820.46465271 -1023.9401474 820.50241089 C-1042.24469911 821.2085611 -1060.54207686 821.7042274 -1078.86181641 821.51635742 C-1079.60985499 808.67720956 -1080.00082296 795.88038068 -1080.06410408 783.02043724 C-1080.36055489 730.68204899 -1082.28324233 678.64373224 -1086.14635849 626.4618125 C-1086.29913273 624.39384369 -1086.45072694 622.3257916 -1086.60195923 620.2577095 C-1087.26997306 611.13129317 -1087.96236352 602.00695548 -1088.67041016 592.88354492 C-1088.75899733 591.71954477 -1088.8475845 590.55554462 -1088.93885612 589.35627174 C-1090.21276856 572.76395933 -1092.00786581 556.48269434 -1095.67944336 540.23803711 C-1099.84803017 521.62660117 -1101.44805296 503.73325001 -1101.34228516 484.65698242 C-1101.33725101 483.52833267 -1101.33221687 482.39968292 -1101.32703018 481.23683167 C-1101.2679526 470.73662592 -1101.11864388 460.23830226 -1100.91381836 449.73999023 C-1100.30472207 416.6668811 -1102.98961439 387.62755532 -1115.36849976 356.72058105 C-1118.52584096 348.63269942 -1119.53442708 342.16428631 -1118.86181641 333.51635742 C-1118.77023254 332.28178802 -1118.67864868 331.04721863 -1118.58428955 329.77523804 C-1118.30481255 326.30944234 -1117.97226192 322.85026132 -1117.62635231 319.39053345 C-1117.22534037 315.35556214 -1116.85193535 311.31798212 -1116.47436523 307.28076172 C-1116.39407546 306.42655828 -1116.31378569 305.57235485 -1116.23106289 304.69226646 C-1113.26058002 273.02224538 -1111.22263411 241.51037625 -1110.67431641 209.70385742 C-1110.64507202 208.02712957 -1110.6157956 206.35040227 -1110.58648682 204.67367554 C-1110.56487551 203.43690488 -1110.56487551 203.43690488 -1110.54282761 202.17514896 C-1110.47087966 198.09482217 -1110.39626409 194.01455286 -1110.31884766 189.93432617 C-1110.3040184 189.14629797 -1110.28918915 188.35826977 -1110.27391052 187.54636192 C-1109.96655192 171.82743103 -1109.09035233 156.19171795 -1107.86181641 140.51635742 C-1107.7775943 139.41722015 -1107.69337219 138.31808289 -1107.6065979 137.18563843 C-1107.36960491 134.14897903 -1107.11986083 131.11379424 -1106.86181641 128.07885742 C-1106.75561226 126.78332695 -1106.75561226 126.78332695 -1106.64726257 125.46162415 C-1105.91909919 117.48790871 -1105.13080497 109.20643602 -1098.86181641 103.51635742 C-1095.87098976 102.58271912 -1092.99106939 102.76111732 -1089.88134766 102.86181641 C-1079.85045184 102.77376 -1070.05820487 101.85847946 -1060.12353516 100.59082031 C-1058.53237515 100.39081476 -1056.94118925 100.19101509 -1055.3499794 99.99140644 C-1051.92366673 99.56010224 -1048.49784984 99.12504425 -1045.07221222 98.68841362 C-1035.00510592 97.40890455 -1024.93069549 96.18794178 -1014.85693359 94.9621582 C-1013.75408634 94.82790731 -1012.65123908 94.69365641 -1011.51497221 94.55533731 C-913.64440494 82.653931 -815.61665184 72.79186261 -615.44464731 54.4871757 C-611.60991728 54.14118607 -607.77520646 53.79498432 -603.94050217 53.44870949 C-502.49269548 44.28817344 -401.03783094 35.20137487 -299.53369141 26.68432617 C-298.80826222 26.62344018 -298.08283303 26.56255418 -297.33542114 26.49982315 C-273.00882077 24.45819591 -248.68123287 22.42834642 -224.35193861 20.41906035 C-162.57334189 15.31676508 -100.94980149 9.63894038 -39.46533203 1.6875 C-38.30935328 1.5381302 -37.15337452 1.3887604 -35.9623661 1.23486423 C-30.75197905 0.55865791 -25.54379159 -0.12965686 -20.3387146 -0.84562683 C-19.44154976 -0.96623631 -18.54438492 -1.0868458 -17.62003326 -1.21111012 C-15.99043942 -1.4304233 -14.36167036 -1.65601179 -12.73406219 -1.88960552 C-3.85453432 -3.07159783 -3.85453432 -3.07159783 0 0 Z " fill="#000000" transform="translate(2546.86181640625,2556.483642578125)"/>
<path d="M0 0 C1.48344974 0.01662637 2.96759483 0.00446644 4.45043945 -0.04104614 C9.1072072 -0.17688865 12.96755528 0.20884838 17.28039551 2.02555847 C20.57244157 6.1302637 22.42437955 10.35390306 24.22888184 15.25920105 C25.26865622 17.99467436 26.41433664 20.67312214 27.57197571 23.36030579 C32.3975464 34.68037964 36.10957609 46.34133679 39.8994751 58.03944397 C46.29378781 77.72256628 53.0154095 97.22156665 60.65539551 116.46305847 C61.03292969 117.4166626 61.41046387 118.37026672 61.79943848 119.35276794 C64.82214269 126.97750363 67.86348876 134.59477332 70.98693848 142.17887878 C80.84620999 166.12565744 88.2345619 190.80608602 95.68395996 215.58244324 C95.89860271 216.29624838 96.11324547 217.01005352 96.33439255 217.74548912 C97.41416818 221.34269801 98.48564432 224.94212082 99.54397583 228.54570007 C101.46081471 235.05789403 103.41994519 241.52731475 105.6439209 247.94328308 C112.94457523 269.48666301 115.62800543 291.54601731 118.69291306 314.00681591 C124.43798682 356.07603424 131.02198543 396.31732079 144.77746582 436.54606628 C147.66905068 445.07418586 150.28847567 453.68098238 152.89758301 462.29899597 C153.25756378 463.4866219 153.25756378 463.4866219 153.62481689 464.69824028 C154.60394589 467.92874619 155.58259269 471.15939698 156.56002045 474.39041805 C159.23217489 483.21911213 161.94442596 492.03534864 164.66320801 500.84977722 C164.90267151 501.62654375 165.14213501 502.40331028 165.38885498 503.20361519 C168.61886617 513.67880915 171.87288398 524.14628604 175.14758301 534.60758972 C182.55077311 558.26439948 189.85557488 581.94638848 196.80535889 605.74064636 C197.57193903 608.36480447 198.34451347 610.9870709 199.12261963 613.60783386 C200.19329502 617.2261919 201.24535173 620.84944008 202.29211426 624.47477722 C202.6119075 625.54483505 202.93170074 626.61489288 203.26118469 627.71737671 C206.3754178 638.6733905 203.6532023 645.06925792 198.70617676 655.01383972 C198.14472458 656.15338608 197.5832724 657.29293243 197.00480652 658.4670105 C195.81711104 660.86765887 194.6251224 663.26559261 193.42614746 665.66056824 C191.89362615 668.725101 190.38916753 671.80251569 188.89130878 674.88410664 C187.45178749 677.83215258 185.98348474 680.76579683 184.51867676 683.70133972 C183.98406326 684.80649429 183.44944977 685.91164886 182.89863586 687.05029297 C182.38177719 688.06862717 181.86491852 689.08696136 181.33239746 690.13615417 C180.88685013 691.03437393 180.4413028 691.93259369 179.98225403 692.85803223 C177.16407433 696.44733086 173.30299099 696.86272575 168.92865759 697.55927157 C167.70018132 697.69298828 166.47170506 697.82670499 165.20600224 697.96447372 C164.51728933 698.0411381 163.82857643 698.11780248 163.11899344 698.19679002 C160.8262286 698.45003492 158.53253827 698.69342301 156.23866272 698.93638611 C154.59377595 699.11507451 152.94893206 699.29415798 151.30412805 699.47360659 C146.83888569 699.95817101 142.37261701 700.43253211 137.90593545 700.90362793 C135.07796049 701.20217178 132.25021709 701.50283496 129.42250741 701.80388021 C90.81644687 705.90601072 52.16492486 709.33468411 13.4758698 712.54434218 C3.98209158 713.3323707 -5.51068304 714.13222869 -15.00346129 714.93219778 C-32.1154942 716.37396358 -49.22821563 717.80736998 -66.34143066 719.23503113 C-82.50847205 720.58377776 -98.67518214 721.936383 -114.84143066 723.29460144 C-116.32366798 723.41912944 -116.32366798 723.41912944 -117.83584948 723.54617315 C-122.81671337 723.96465694 -127.79757059 724.38321996 -132.7784245 724.80182254 C-158.56161813 726.9686442 -184.34502887 729.13284901 -210.12918091 731.28823853 C-211.10856503 731.37010952 -212.08794915 731.45198052 -213.09701158 731.53633245 C-220.93511185 732.19152833 -228.77322201 732.84660583 -236.61133531 733.50164573 C-262.06515001 735.62890425 -287.51825629 737.76425243 -312.97014582 739.91442478 C-405.9847387 747.77209276 -499.01971636 755.36677379 -618.9828177 765.04792778 C-636.07519448 766.42666754 -653.16746474 767.80672031 -670.25964355 769.18791199 C-671.39521037 769.27967502 -672.53077719 769.37143805 -673.70075512 769.46598177 C-678.27569013 769.8356775 -682.85062467 770.20537891 -687.42555857 770.57508838 C-708.48185519 772.2766702 -729.53821735 773.97744096 -750.59460449 775.67790222 C-751.62875425 775.76141783 -752.66290401 775.84493344 -753.72839165 775.93097982 C-759.82351513 776.42319658 -765.91864409 776.91534556 -772.01377964 777.40741286 C-773.99482601 777.56734792 -775.97587142 777.72729482 -777.95691586 777.88725372 C-788.42006815 778.73207045 -798.88330538 779.57580525 -809.34680176 780.41635036 C-812.98507133 780.70870784 -816.62333535 781.00113435 -820.26159668 781.29359436 C-821.59380737 781.40065273 -821.59380737 781.40065273 -822.9529314 781.5098739 C-834.76642568 782.45965952 -846.57872723 783.42306187 -858.39014244 784.39835566 C-864.60908727 784.91174059 -870.8283994 785.42060512 -877.04781878 785.9282059 C-882.00227296 786.3329507 -886.95618861 786.7436034 -891.90976906 787.15889755 C-894.91542542 787.40943369 -897.9215295 787.65421329 -900.92779493 787.89732127 C-902.30988185 788.01028162 -903.69177407 788.12565441 -905.07344103 788.24364038 C-906.95285261 788.40382748 -908.83305907 788.55460584 -910.71328735 788.7049036 C-911.75969957 788.79155153 -912.80611179 788.87819946 -913.88423347 788.96747309 C-917.47205188 789.0409731 -920.51630723 788.92330777 -923.44543457 786.73796082 C-924.20956665 785.93286072 -924.20956665 785.93286072 -924.98913574 785.11149597 C-925.56389648 784.51868835 -926.13865723 783.92588074 -926.73083496 783.31510925 C-927.32525391 782.6833075 -927.91967285 782.05150574 -928.53210449 781.40055847 C-929.77892199 780.11227758 -931.02760408 778.8257985 -932.27819824 777.54118347 C-933.17127686 776.61982605 -933.17127686 776.61982605 -934.08239746 775.67985535 C-936.5722907 773.16397157 -939.23167009 770.88129867 -941.93054199 768.59587097 C-944.58101372 766.26947439 -947.02102428 763.74908798 -949.46960449 761.21305847 C-951.55915916 759.06386907 -951.55915916 759.06386907 -953.56188965 757.73991394 C-960.7489384 752.41611139 -962.61032165 745.35100353 -965.09460449 737.15055847 C-965.5943146 735.57524903 -966.09652528 734.0007311 -966.60095215 732.42692566 C-968.02591978 727.95654161 -969.41713098 723.47626829 -970.80163574 718.99320984 C-973.49979261 710.27048488 -976.23753042 701.55998026 -978.97268677 692.84880066 C-979.72474579 690.45353676 -980.47601915 688.05802604 -981.22653198 685.66227722 C-987.48285774 665.7170688 -994.08542183 645.90866283 -1000.90710449 626.15055847 C-1001.14007736 625.4755278 -1001.37305023 624.80049713 -1001.61308289 624.10501099 C-1006.46580457 610.04931962 -1011.36566263 596.01043485 -1016.30944824 581.98649597 C-1017.00519499 580.00847825 -1017.70091529 578.03045122 -1018.39660645 576.05241394 C-1019.63956408 572.5193303 -1020.89270779 568.99014615 -1022.15393066 565.46354675 C-1022.70993816 563.89055993 -1023.26569925 562.31748598 -1023.82116699 560.74430847 C-1024.05871201 560.08973663 -1024.29625702 559.43516479 -1024.54100037 558.76075745 C-1030.45777102 541.8840235 -1033.40944191 523.90067233 -1037.15446115 506.44513941 C-1037.98888787 502.55830893 -1038.82615409 498.67208998 -1039.66300964 494.78578186 C-1041.07098924 488.24516807 -1042.47690157 481.70411268 -1043.88146973 475.1627655 C-1045.48421211 467.69856501 -1047.08982123 460.234986 -1048.69712192 452.77176583 C-1050.26407774 445.49568582 -1051.82925389 438.2192241 -1053.39357567 430.94257736 C-1054.04879064 427.89479625 -1054.70450967 424.84712433 -1055.36068153 421.7995491 C-1057.34447784 412.58329532 -1059.31417925 403.36414963 -1061.26993656 394.14190555 C-1061.72544325 391.99807855 -1062.18330059 389.85476411 -1062.64160919 387.7115345 C-1066.8351563 368.07306784 -1070.44750695 348.44134174 -1073.38366699 328.56852722 C-1073.68383867 326.56085476 -1073.98513787 324.55335348 -1074.28649843 322.54585916 C-1075.22989896 316.26000658 -1076.16358541 309.97276798 -1077.09069824 303.68449402 C-1077.91876319 298.06912331 -1078.75837033 292.45563175 -1079.60925293 286.84367371 C-1083.94142133 258.25558192 -1088.05168337 229.6817387 -1090.80554199 200.88883972 C-1090.90938831 199.82923727 -1091.01323463 198.76963482 -1091.12022781 197.6779232 C-1092.93158175 178.89022069 -1093.57965708 160.09836183 -1091.87976074 141.27165222 C-1091.79334824 140.23081985 -1091.70693573 139.18998749 -1091.61790466 138.11761475 C-1091.43821656 135.97302819 -1091.25415816 133.82880294 -1091.06555176 131.6849823 C-1090.7771449 128.40668321 -1090.5021676 125.127456 -1090.22937012 121.8478241 C-1090.05108324 119.73903663 -1089.87207488 117.63031001 -1089.69226074 115.52165222 C-1089.60992691 114.552957 -1089.52759308 113.58426178 -1089.44276428 112.58621216 C-1089.36275681 111.67988541 -1089.28274933 110.77355865 -1089.20031738 109.83976746 C-1089.09705894 108.65809242 -1089.09705894 108.65809242 -1088.99171448 107.45254517 C-1088.67440331 104.62240288 -1088.20802992 101.8307497 -1087.71960449 99.02555847 C-1078.16167111 97.72845269 -1068.60303551 96.43666442 -1059.04376984 95.14941502 C-1054.51495524 94.53910118 -1049.98649773 93.926363 -1045.4588623 93.30735779 C-952.94796193 80.66069116 -860.06884782 72.02852154 -749.71960449 62.02555847 C-748.54534409 61.91933229 -747.37108368 61.81310612 -746.16123962 61.70366096 C-656.77327371 53.61817227 -567.37272494 45.5905234 -432.07116699 34.63883972 C-430.6934466 34.52879025 -429.31572624 34.41874029 -427.93800592 34.30868983 C-403.65136108 32.3690062 -379.36397339 30.43864339 -355.07591283 28.51676971 C-293.61528356 23.65282995 -232.23372547 18.54381418 -170.93643188 11.91947937 C-133.65413442 7.89365565 -96.39602872 4.95307708 -58.96960449 2.71305847 C-57.73580677 2.63914761 -56.50200905 2.56523674 -55.23082352 2.48908615 C-47.19149579 2.01011912 -39.15135321 1.54754862 -31.11022949 1.09977722 C-30.0914591 1.04262543 -29.07268871 0.98547363 -28.02304649 0.92658997 C-9.20861024 -0.1176325 -9.20861024 -0.1176325 0 0 Z " fill="#000000" transform="translate(3830.7196044921875,2438.9744415283203)"/>
</svg>
