<?xml version="1.0" encoding="UTF-8"?>
<svg version="1.1" xmlns="http://www.w3.org/2000/svg" width="5000" height="4566">
<path d="M0 0 C1.58423264 0.62183922 1.58423264 0.62183922 3.20046997 1.25624084 C4.33169281 1.70720627 5.46291565 2.15817169 6.62841797 2.62280273 C7.81547333 3.09072739 9.00252869 3.55865204 10.22555542 4.04075623 C13.38622464 5.28680875 16.54402641 6.53997457 19.70129395 7.7946167 C22.84061096 9.04061987 25.98265848 10.27969625 29.12451172 11.51928711 C33.99303524 13.44057285 38.8561812 15.37472634 43.71679688 17.31591797 C47.97165249 19.01023293 52.23858132 20.65358707 56.53613281 22.23632812 C57.45095428 22.58046249 58.36577576 22.92459686 59.30831909 23.27915955 C60.96373862 23.89992482 62.62523551 24.50487124 64.29397583 25.08888245 C71.56369639 27.85040455 75.6842575 32.97430443 79.65185547 39.52514648 C82.65136595 44.30746461 85.98757333 48.79072538 89.37060547 53.30639648 C90.54019034 54.89374864 91.70814554 56.48230278 92.87451172 58.07202148 C95.39706884 61.50363933 97.92650147 64.93005618 100.46044922 68.35327148 C101.10449707 69.2242749 101.74854492 70.09527832 102.41210938 70.99267578 C103.65411267 72.67208302 104.89723551 74.35066302 106.14160156 76.02832031 C106.97618896 77.15790161 106.97618896 77.15790161 107.82763672 78.31030273 C108.56590698 79.30719116 108.56590698 79.30719116 109.3190918 80.32421875 C110.49560547 81.99389648 110.49560547 81.99389648 111.49560547 83.99389648 C120.93411465 82.39475903 129.89583357 79.48985236 138.99169922 76.58374023 C140.67401438 76.05045281 142.35647648 75.51762874 144.03907776 74.98524475 C148.4402498 73.59130498 152.83937514 72.19101333 157.23809814 70.78936768 C161.72566621 69.36072439 166.2152307 67.93838359 170.70458984 66.51538086 C177.24979595 64.43971532 183.7942854 62.36181841 190.3371582 60.27880859 C191.02131805 60.06112823 191.70547791 59.84344788 192.41036987 59.61917114 C195.1107582 58.75892418 197.80689629 57.89013288 200.49560547 56.99389648 C203.42823331 56.80982764 206.341049 56.67992063 209.27685547 56.59472656 C210.17692322 56.56566727 211.07699097 56.53660797 212.0043335 56.50666809 C220.42169076 56.24970684 228.84109124 56.09877946 237.26141357 55.979146 C242.89371957 55.8974078 248.52050574 55.78263813 254.14990234 55.58105469 C283.45447567 54.55850963 305.13458668 56.64205985 330.03604126 72.80587769 C334.25663844 75.52744614 338.68523178 77.80207332 343.16674805 80.0619812 C345.90225221 81.44742452 348.58620842 82.90789736 351.26904297 84.39233398 C354.8095678 86.27079017 358.18142802 87.56726637 362.03466797 88.65795898 C368.77392653 90.81346909 374.79248448 93.43509749 378.55041504 99.77282715 C383.51833653 109.69720245 386.42299908 120.61260949 389.53512573 131.22247314 C391.96629152 139.46021544 394.72693957 147.55085545 397.60498047 155.64233398 C398.48729002 158.14263121 399.36928919 160.64303799 400.25097656 163.14355469 C401.5468825 166.8164501 402.84605714 170.48789415 404.15997314 174.15438843 C408.72573054 186.96364643 412.60036113 198.63730092 412.49023438 212.29354858 C412.49924185 216.82210792 412.70759552 221.34329443 412.87963867 225.86811829 C413.03674434 230.0045533 413.16822372 234.1415732 413.29443359 238.27905273 C413.42454874 242.54236837 413.55491587 246.80563577 413.69604492 251.06860352 C413.95287725 258.85934406 414.1683283 266.64891015 414.32480812 274.44235134 C414.42083615 278.83625456 414.59816901 283.21875863 414.82880116 287.60753345 C416.00294511 310.94386899 411.84248415 330.2974446 404.29998779 352.31219482 C402.95322812 356.27889717 401.66647355 360.26494186 400.37451172 364.24975586 C398.38088616 370.37947661 396.35081803 376.49565599 394.29125977 382.60351562 C392.50655596 387.9007377 390.78799869 393.21053515 389.1472168 398.55419922 C388.79308716 399.70140945 388.43895752 400.84861969 388.07409668 402.03059387 C387.43703778 404.10990284 386.81005104 406.19234175 386.19616699 408.27861023 C383.68431055 416.43653124 379.66643382 422.24050437 373.90576172 428.4387207 C371.50812993 431.08292335 369.36286626 433.91990682 367.18310547 436.74389648 C366.27118085 437.90601116 365.35839939 439.06745391 364.44482422 440.22827148 C361.11560027 444.47351444 357.80562338 448.73367284 354.49560547 452.99389648 C348.96558971 460.11141202 343.41137154 467.20918468 337.83544922 474.29077148 C335.96242952 476.67163618 334.09322375 479.05547975 332.22509766 481.44018555 C331.28874605 482.63208176 330.3493419 483.82158691 329.40673828 485.00854492 C327.35329651 487.59702807 325.35915178 490.18659826 323.44873047 492.88452148 C315.10213952 504.4041966 300.08749206 508.39305281 287.35525513 513.71084595 C282.35435467 515.79966837 277.3590271 517.90175594 272.36279297 520.00170898 C270.85813225 520.63345787 270.85813225 520.63345787 269.32307434 521.27796936 C259.88273372 525.24405116 250.46626275 529.26466079 241.05810547 533.30639648 C240.35942352 533.60641571 239.66074158 533.90643494 238.94088745 534.21554565 C237.58932258 534.79596452 236.23783434 535.37656186 234.88642883 535.95735168 C233.60588505 536.507379 232.32504071 537.05670722 231.04386902 537.60527039 C227.89794135 538.95362095 224.75983449 540.31681185 221.63183594 541.70629883 C221.00413803 541.98241501 220.37644012 542.25853119 219.72972107 542.54301453 C218.01677135 543.29705942 216.30673363 544.05770978 214.59692383 544.81884766 C208.87350047 546.98737766 203.04992682 547.21496297 196.98461914 547.45654297 C196.14917572 547.49202744 195.3137323 547.5275119 194.45297241 547.56407166 C186.67701844 547.87749791 178.89851672 548.06625885 171.11783886 548.21589565 C165.91903306 548.31839226 160.7290133 548.46128124 155.53491211 548.70849609 C127.47170608 550.00919832 108.7048166 547.45261072 86.71700764 529.20740318 C80.57150694 524.11079925 73.91656488 519.97155405 67.12060547 515.80639648 C65.11153327 514.54407625 63.10348149 513.28012799 61.09716797 512.01342773 C60.27555176 511.4988501 59.45393555 510.98427246 58.60742188 510.45410156 C55.23325753 508.1210522 53.29306882 506.10245522 51.90844727 502.21728516 C51.63300583 501.45769501 51.35756439 500.69810486 51.07377625 499.91549683 C50.78372208 499.0892984 50.49366791 498.26309998 50.19482422 497.41186523 C49.88184891 496.54361115 49.5688736 495.67535706 49.24641418 494.78079224 C48.21634274 491.91744784 47.1986977 489.04990622 46.18310547 486.18139648 C44.74237211 482.12553554 43.29823908 478.07090453 41.85107422 474.01733398 C41.48638031 472.99374283 41.1216864 471.97015167 40.74594116 470.9155426 C38.50327975 464.66474354 36.12780592 458.48956673 33.60888672 452.34545898 C24.26111749 429.26918442 19.75620631 406.38333532 16.47135925 381.72117615 C16.3558522 380.86145706 16.24034515 380.00173798 16.12133789 379.1159668 C16.02366623 378.36454407 15.92599457 377.61312134 15.82536316 376.83892822 C15.56973644 374.90643134 15.56973644 374.90643134 14.49560547 372.99389648 C12.84560547 373.32389648 11.19560547 373.65389648 9.49560547 373.99389648 C9.42212891 375.14051758 9.42212891 375.14051758 9.34716797 376.31030273 C8.74509296 384.93658426 7.71463142 393.4370444 6.49560547 401.99389648 C-50.01040304 406.67877918 -100.57575728 392.88288158 -152.50439453 371.99389648 C-152.50439453 371.33389648 -152.50439453 370.67389648 -152.50439453 369.99389648 C-153.76123047 369.91268555 -153.76123047 369.91268555 -155.04345703 369.82983398 C-159.58545782 368.73278188 -162.27948858 366.50211738 -165.87939453 363.61889648 C-167.30437113 362.51331119 -168.73151318 361.41051213 -170.16064453 360.31030273 C-170.88380859 359.7522998 -171.60697266 359.19429687 -172.35205078 358.61938477 C-175.61895828 356.15215811 -178.98889286 353.84933598 -182.37939453 351.55639648 C-188.9133588 347.11921809 -195.33167675 342.5407261 -201.72265625 337.90039062 C-207.47241464 333.72888853 -213.26445264 329.62172559 -219.07666016 325.5378418 C-225.35868795 321.11574085 -231.5838375 316.61662574 -237.79345703 312.09350586 C-238.87046875 311.31136719 -238.87046875 311.31136719 -239.96923828 310.51342773 C-240.92237915 309.81890503 -240.92237915 309.81890503 -241.89477539 309.11035156 C-243.51860235 307.92750289 -243.51860235 307.92750289 -245.50439453 306.99389648 C-244.99983671 300.40475541 -244.01273716 294.19273047 -242.34301758 287.80322266 C-242.1249646 286.94482285 -241.90691162 286.08642303 -241.68225098 285.20201111 C-240.96727957 282.39509911 -240.24192395 279.59099213 -239.51611328 276.78686523 C-239.01091128 274.81461887 -238.50626702 272.84222955 -238.00215149 270.8697052 C-236.94659962 266.74578958 -235.88622763 262.62315548 -234.82202148 258.50146484 C-233.46670858 253.25183479 -232.12050802 247.99992439 -230.77759075 242.74711132 C-229.73609764 238.67549011 -228.69119433 234.60475044 -227.64515114 230.53429604 C-227.14815194 228.59983314 -226.65183716 226.66519425 -226.15625572 224.73036766 C-218.48771748 194.82831694 -218.48771748 194.82831694 -213.92236328 187.25952148 C-213.59170364 186.70258606 -213.26104401 186.14565063 -212.92036438 185.57183838 C-211.8570076 183.78780377 -210.77487706 182.01607148 -209.69189453 180.24389648 C-208.92890838 178.97186938 -208.16721342 177.699067 -207.40673828 176.42553711 C-205.48373156 173.21188217 -203.54553948 170.00771097 -201.60247803 166.80615234 C-199.94256826 164.06666923 -198.29572044 161.31940313 -196.64892578 158.57202148 C-194.82761874 155.5335187 -193.00542417 152.49560608 -191.17773438 149.4609375 C-186.32861817 141.40361939 -181.56350882 133.29928706 -176.81689453 125.18139648 C-166.60669127 107.73386391 -166.60669127 107.73386391 -161.81689453 99.68139648 C-161.36032471 98.90626709 -160.90375488 98.1311377 -160.43334961 97.33251953 C-155.95219981 89.8328925 -151.13601412 83.16031174 -144.56689453 77.36889648 C-143.42180888 76.3356564 -142.27730128 75.30177542 -141.13330078 74.26733398 C-140.54049316 73.73462891 -139.94768555 73.20192383 -139.33691406 72.65307617 C-136.19078764 69.80454497 -133.1005297 66.8965232 -130.00439453 63.99389648 C-125.37415907 59.66427197 -120.73070641 55.34982343 -116.06689453 51.05639648 C-110.5398786 45.96777439 -105.05496109 40.83525798 -99.58666992 35.68359375 C-98.33918054 34.51047424 -97.08454878 33.344905 -95.82299805 32.18692017 C-94.18623607 30.63880823 -92.59537692 29.04146341 -91.03990173 27.41169739 C-83.17216788 19.51090638 -75.81633388 16.18416414 -65.23095703 13.07202148 C-63.69228169 12.59461736 -62.15440103 12.1146453 -60.61727905 11.63226318 C-57.42451181 10.63767704 -54.22624075 9.66495082 -51.02148438 8.7097168 C-46.92269651 7.48750147 -42.83789862 6.22463617 -38.75603676 4.94716263 C-35.59381454 3.9597709 -32.42733277 2.98673321 -29.2591362 2.01869965 C-27.75047033 1.55734236 -26.24264356 1.09323148 -24.73570633 0.62625885 C-22.63457313 -0.02093784 -20.52891951 -0.65031738 -18.42089844 -1.2746582 C-16.62986191 -1.8144632 -16.62986191 -1.8144632 -14.80264282 -2.36517334 C-9.32879756 -3.42887513 -5.08438081 -2.01169079 0 0 Z " fill="#000000" transform="translate(2595.50439453125,613.006103515625)"/>
</svg>
