<svg id="visual" viewBox="0 0 5400 9600" width="5400" height="9600" xmlns="http://www.w3.org/2000/svg" xmlns:xlink="http://www.w3.org/1999/xlink" version="1.1"><g><g transform="translate(1245 8508)"><path d="M0 -1097.6L950.6 -548.8L950.6 548.8L0 1097.6L-950.6 548.8L-950.6 -548.8Z" fill="#FFC900"></path></g><g transform="translate(1709 731)"><path d="M0 -505L437.3 -252.5L437.3 252.5L0 505L-437.3 252.5L-437.3 -252.5Z" fill="#FFC900"></path></g><g transform="translate(2587 6587)"><path d="M0 -977L846.1 -488.5L846.1 488.5L0 977L-846.1 488.5L-846.1 -488.5Z" fill="#FFC900"></path></g><g transform="translate(104 2814)"><path d="M0 -383L331.7 -191.5L331.7 191.5L0 383L-331.7 191.5L-331.7 -191.5Z" fill="#FFC900"></path></g><g transform="translate(4829 3311)"><path d="M0 -843L730.1 -421.5L730.1 421.5L0 843L-730.1 421.5L-730.1 -421.5Z" fill="#FFC900"></path></g><g transform="translate(5013 166)"><path d="M0 -817L707.5 -408.5L707.5 408.5L0 817L-707.5 408.5L-707.5 -408.5Z" fill="#FFC900"></path></g><g transform="translate(3519 8849)"><path d="M0 -308L266.7 -154L266.7 154L0 308L-266.7 154L-266.7 -154Z" fill="#FFC900"></path></g><g transform="translate(135 5733)"><path d="M0 -306L265 -153L265 153L0 306L-265 153L-265 -153Z" fill="#FFC900"></path></g><g transform="translate(2641 2970)"><path d="M0 -713L617.5 -356.5L617.5 356.5L0 713L-617.5 356.5L-617.5 -356.5Z" fill="#FFC900"></path></g><g transform="translate(5360 5928)"><path d="M0 -961L832.3 -480.5L832.3 480.5L0 961L-832.3 480.5L-832.3 -480.5Z" fill="#FFC900"></path></g></g></svg>