<svg id="visual" viewBox="0 0 5400 9600" width="5400" height="9600" xmlns="http://www.w3.org/2000/svg" xmlns:xlink="http://www.w3.org/1999/xlink" version="1.1"><g><g transform="translate(1758 7320)"><path d="M0 -559.4L484.5 -279.7L484.5 279.7L0 559.4L-484.5 279.7L-484.5 -279.7Z" fill="#053464"></path></g><g transform="translate(1360 3284)"><path d="M0 -330L285.8 -165L285.8 165L0 330L-285.8 165L-285.8 -165Z" fill="#053464"></path></g><g transform="translate(4407 5744)"><path d="M0 -514L445.1 -257L445.1 257L0 514L-445.1 257L-445.1 -257Z" fill="#053464"></path></g><g transform="translate(1711 1638)"><path d="M0 -472L408.8 -236L408.8 236L0 472L-408.8 236L-408.8 -236Z" fill="#053464"></path></g><g transform="translate(3448 7146)"><path d="M0 -495L428.7 -247.5L428.7 247.5L0 495L-428.7 247.5L-428.7 -247.5Z" fill="#053464"></path></g><g transform="translate(4291 8541)"><path d="M0 -342L296.2 -171L296.2 171L0 342L-296.2 171L-296.2 -171Z" fill="#053464"></path></g><g transform="translate(661 5800)"><path d="M0 -206L178.4 -103L178.4 103L0 206L-178.4 103L-178.4 -103Z" fill="#053464"></path></g><g transform="translate(4432 1730)"><path d="M0 -289L250.3 -144.5L250.3 144.5L0 289L-250.3 144.5L-250.3 -144.5Z" fill="#053464"></path></g><g transform="translate(1494 8849)"><path d="M0 -445L385.4 -222.5L385.4 222.5L0 445L-385.4 222.5L-385.4 -222.5Z" fill="#053464"></path></g><g transform="translate(3239 5106)"><path d="M0 -226L195.7 -113L195.7 113L0 226L-195.7 113L-195.7 -113Z" fill="#053464"></path></g><g transform="translate(854 4367)"><path d="M0 -551L477.2 -275.5L477.2 275.5L0 551L-477.2 275.5L-477.2 -275.5Z" fill="#053464"></path></g><g transform="translate(3914 3567)"><path d="M0 -361L312.6 -180.5L312.6 180.5L0 361L-312.6 180.5L-312.6 -180.5Z" fill="#053464"></path></g><g transform="translate(2166 5612)"><path d="M0 -526L455.5 -263L455.5 263L0 526L-455.5 263L-455.5 -263Z" fill="#053464"></path></g><g transform="translate(2576 2608)"><path d="M0 -351L304 -175.5L304 175.5L0 351L-304 175.5L-304 -175.5Z" fill="#053464"></path></g><g transform="translate(2784 3742)"><path d="M0 -352L304.8 -176L304.8 176L0 352L-304.8 176L-304.8 -176Z" fill="#053464"></path></g><g transform="translate(565 7683)"><path d="M0 -551L477.2 -275.5L477.2 275.5L0 551L-477.2 275.5L-477.2 -275.5Z" fill="#053464"></path></g><g transform="translate(3236 1642)"><path d="M0 -264L228.6 -132L228.6 132L0 264L-228.6 132L-228.6 -132Z" fill="#053464"></path></g><g transform="translate(746 995)"><path d="M0 -118L102.2 -59L102.2 59L0 118L-102.2 59L-102.2 -59Z" fill="#053464"></path></g><g transform="translate(2508 604)"><path d="M0 -213L184.5 -106.5L184.5 106.5L0 213L-184.5 106.5L-184.5 -106.5Z" fill="#053464"></path></g><g transform="translate(4752 2814)"><path d="M0 -205L177.5 -102.5L177.5 102.5L0 205L-177.5 102.5L-177.5 -102.5Z" fill="#053464"></path></g><g transform="translate(2773 8561)"><path d="M0 -480L415.7 -240L415.7 240L0 480L-415.7 240L-415.7 -240Z" fill="#053464"></path></g><g transform="translate(603 2244)"><path d="M0 -528L457.3 -264L457.3 264L0 528L-457.3 264L-457.3 -264Z" fill="#053464"></path></g><g transform="translate(4610 7165)"><path d="M0 -250L216.5 -125L216.5 125L0 250L-216.5 125L-216.5 -125Z" fill="#053464"></path></g><g transform="translate(4531 4524)"><path d="M0 -354L306.6 -177L306.6 177L0 354L-306.6 177L-306.6 -177Z" fill="#053464"></path></g><g transform="translate(4289 602)"><path d="M0 -75L65 -37.5L65 37.5L0 75L-65 37.5L-65 -37.5Z" fill="#053464"></path></g></g></svg>