<?xml version="1.0" standalone="no"?>
<!DOCTYPE svg PUBLIC "-//W3C//DTD SVG 20010904//EN"
 "http://www.w3.org/TR/2001/REC-SVG-20010904/DTD/svg10.dtd">
<svg version="1.0" xmlns="http://www.w3.org/2000/svg"
 width="523.000000pt" height="477.000000pt" viewBox="0 0 523.000000 477.000000"
 preserveAspectRatio="xMidYMid meet">

<g transform="translate(0.000000,477.000000) scale(0.100000,-0.100000)"
fill="#000000" stroke="none">
<path d="M2000 4761 c-116 -36 -192 -147 -194 -285 -1 -84 7 -108 59 -166 44
-49 45 -51 29 -75 -22 -34 -31 -270 -15 -401 19 -152 57 -250 142 -361 105
-138 196 -211 369 -298 106 -53 136 -79 165 -143 28 -61 47 -181 27 -168 -7 4
-12 21 -12 37 0 38 -37 76 -83 84 -40 8 -136 -9 -162 -29 -42 -31 -23 -213 30
-282 36 -47 80 -59 140 -39 26 9 49 14 51 12 7 -7 -26 -145 -42 -175 -8 -15
-14 -32 -14 -38 0 -27 -72 -188 -129 -289 -19 -33 -35 -61 -35 -62 -1 0 -176
-17 -391 -37 -214 -20 -400 -39 -412 -41 -20 -5 -22 -13 -28 -93 -19 -290 -15
-392 16 -392 5 0 9 -69 9 -154 l0 -154 38 -7 c33 -5 109 0 318 21 l61 6 6 -38
c11 -66 53 -139 112 -197 l56 -56 -39 -58 c-21 -32 -52 -82 -68 -110 -28 -50
-44 -66 -44 -42 0 28 -48 74 -104 99 -72 33 -344 115 -432 132 -114 21 -154
-7 -154 -106 0 -36 4 -75 9 -88 13 -34 157 -176 247 -245 122 -92 190 -135
309 -197 94 -49 118 -72 31 -30 -16 8 -79 16 -145 20 -94 5 -120 3 -135 -9
-18 -13 -11 -15 79 -22 63 -4 93 -10 84 -16 -8 -5 -31 -9 -52 -9 -24 0 -40 -5
-43 -15 -4 -8 -18 -15 -34 -15 -15 0 -33 -7 -40 -15 -19 -23 -29 -18 -27 13 2
27 2 27 -72 30 -89 4 -183 -22 -254 -69 -46 -31 -63 -57 -29 -46 9 4 52 17 95
30 42 13 83 29 89 35 7 7 27 12 45 12 l33 0 -22 -22 -23 -23 47 -6 c51 -8 68
-15 68 -30 0 -12 -86 -12 -110 1 -14 8 -38 6 -85 -5 -70 -16 -141 -42 -134
-50 3 -2 47 1 99 7 96 10 118 7 162 -24 14 -10 26 -8 63 10 54 26 112 28 198
6 42 -10 70 -12 86 -6 14 5 44 5 70 0 31 -6 55 -4 74 3 20 8 31 9 35 2 4 -6
21 -14 38 -17 28 -6 32 -4 38 18 7 29 23 33 51 12 11 -8 25 -11 33 -9 7 3 31
0 54 -7 33 -12 41 -12 48 0 12 19 95 15 126 -5 13 -8 34 -15 46 -15 22 1 22 1
4 15 -19 14 -18 15 16 15 20 0 49 -5 64 -10 15 -6 73 -15 128 -20 109 -11 202
-23 254 -34 37 -9 54 13 31 41 -12 15 -12 16 6 8 11 -5 56 -13 99 -19 61 -8
81 -7 84 2 2 7 17 12 34 12 21 0 31 6 35 20 6 24 12 25 49 5 33 -17 46 -11 18
10 -29 22 -10 18 111 -20 119 -38 195 -45 195 -20 0 8 -8 15 -19 15 -30 0
-225 61 -240 76 -24 22 -9 24 57 6 36 -9 63 -22 65 -32 3 -8 5 -2 6 14 1 29
11 31 66 9 12 -4 16 -2 14 6 -6 16 -58 36 -174 66 -76 19 -86 24 -63 30 15 4
33 3 40 -1 7 -4 35 -9 62 -11 27 -2 53 -9 58 -15 5 -9 27 -12 65 -10 37 2 72
-2 95 -12 49 -21 58 -20 58 4 0 17 3 19 19 10 28 -15 41 -12 41 8 0 21 -103
61 -176 68 -26 2 -50 7 -53 9 -2 3 -9 1 -15 -4 -7 -6 -31 -6 -61 0 -80 15
-133 13 -154 -5 -10 -9 -35 -20 -55 -23 -34 -5 -51 -23 -22 -23 11 0 12 -5 3
-26 -11 -25 -15 -26 -72 -20 -81 8 -96 26 -22 26 43 0 57 4 57 14 0 8 -10 16
-22 18 -19 2 -8 15 67 73 148 116 202 189 212 291 5 47 3 58 -17 79 -27 29
-108 50 -163 41 -22 -4 -69 -18 -105 -32 l-64 -26 -24 23 c-13 12 -24 28 -24
35 0 7 37 31 83 52 111 53 162 101 264 251 47 69 98 139 112 154 58 64 113 71
230 31 60 -21 89 -25 146 -22 87 4 142 30 227 105 59 53 119 132 101 134 -4 1
10 7 31 13 30 9 42 20 49 41 8 22 51 75 61 75 1 0 63 11 137 24 152 27 236 56
282 95 18 15 44 35 60 44 49 31 168 149 193 193 32 55 57 173 48 233 -7 47
-41 127 -51 118 -2 -3 1 -15 7 -28 20 -36 8 -195 -18 -245 -23 -45 -105 -124
-188 -182 -162 -111 -201 -127 -364 -143 -60 -6 -124 -19 -149 -30 -24 -11
-45 -18 -46 -17 -1 2 -13 37 -25 78 -15 48 -23 97 -22 137 1 37 -4 73 -13 90
-8 15 -15 35 -15 43 0 8 -11 33 -23 56 -13 22 -32 69 -43 103 -11 37 -27 69
-39 77 -17 11 -92 6 -480 -31 -253 -24 -463 -40 -466 -37 -16 18 -29 111 -29
212 0 90 6 133 30 230 17 65 30 130 30 144 0 50 70 299 94 336 32 48 79 67
104 41 9 -9 42 -33 72 -52 52 -32 60 -34 140 -34 76 0 92 4 148 33 74 38 201
156 248 228 62 96 116 241 127 337 12 105 -2 223 -33 289 -30 64 -132 172
-187 199 -64 31 -169 30 -243 -2 l-51 -22 -16 24 c-45 67 -110 116 -194 146
l-84 31 -10 54 c-13 74 -54 131 -125 177 -79 51 -134 65 -223 58 -134 -11
-188 -39 -249 -126 -48 -69 -67 -135 -79 -283 -10 -113 -13 -122 -44 -163 -18
-24 -41 -65 -51 -92 -9 -26 -20 -52 -24 -56 -4 -4 -41 27 -83 69 -86 86 -131
166 -151 263 l-12 63 43 86 c40 80 43 92 43 167 0 99 -13 146 -51 189 -47 54
-146 79 -219 57z m154 -117 c16 -16 22 -81 8 -100 -27 -38 -104 -58 -130 -32
-7 7 -12 28 -12 48 0 39 25 71 70 89 35 14 46 13 64 -5z m866 -150 c25 -10 60
-27 78 -38 34 -22 72 -87 72 -124 0 -20 -5 -22 -58 -22 -110 0 -269 -55 -334
-115 -16 -14 -44 -26 -74 -30 -27 -4 -59 -13 -71 -21 -34 -21 -43 -17 -43 19
0 44 37 191 62 243 21 47 63 81 122 101 54 17 187 11 246 -13z m-1019 -260
c37 -9 78 -14 101 -10 30 5 38 3 38 -9 0 -34 64 -178 101 -227 65 -87 160
-178 225 -214 92 -52 132 -42 54 13 -37 26 -40 31 -34 63 10 59 41 119 95 181
62 72 81 83 125 75 34 -7 104 -64 104 -85 0 -7 -19 -11 -48 -11 -38 0 -59 -7
-96 -31 -56 -37 -69 -57 -85 -122 -12 -51 -9 -67 14 -67 9 0 17 15 21 41 4 25
19 55 36 75 28 32 112 73 125 61 7 -8 -17 -67 -27 -67 -4 0 -10 7 -14 15 -8
23 -44 18 -62 -9 -23 -36 -15 -70 18 -74 l26 -3 -5 -92 c-5 -82 -3 -97 16
-136 31 -60 88 -85 182 -79 80 4 102 17 172 104 26 32 55 61 63 62 16 4 70
-14 91 -31 15 -11 0 -42 -87 -184 -33 -53 -60 -102 -60 -108 0 -5 -13 -44 -29
-85 -16 -41 -32 -96 -36 -122 -9 -60 2 -141 18 -135 14 4 21 37 36 156 11 88
22 115 117 286 73 131 86 145 141 145 36 0 43 3 43 19 0 14 -29 36 -107 80
l-108 61 0 93 c0 79 -4 100 -27 150 -23 50 -34 61 -74 79 -51 22 -112 21 -180
-4 -33 -12 -36 -11 -67 20 -31 33 -32 33 -12 49 37 28 138 72 194 84 32 6 97
9 149 7 86 -5 101 -9 178 -48 47 -24 96 -56 109 -72 31 -37 34 -101 5 -138
-11 -14 -20 -30 -20 -37 0 -31 27 -21 78 30 130 128 284 134 384 14 64 -77 80
-105 94 -172 39 -182 -16 -392 -144 -549 -72 -88 -145 -143 -223 -167 -109
-34 -183 -18 -273 58 -49 41 -81 42 -132 5 -58 -43 -104 -142 -118 -257 l-11
-90 -39 0 c-37 0 -40 2 -49 35 -11 42 -24 59 -53 71 -35 13 -86 -7 -120 -47
l-31 -37 -29 22 c-25 18 -34 20 -67 10 -22 -6 -41 -8 -44 -5 -3 3 -12 35 -19
72 -8 37 -23 87 -34 112 -25 57 -25 62 3 62 29 0 118 30 173 58 48 24 110 91
130 138 15 36 19 84 6 84 -4 0 -30 -31 -58 -68 -57 -76 -126 -120 -229 -147
-87 -22 -134 -20 -178 11 -21 14 -55 32 -75 41 -96 40 -276 192 -337 286 -16
23 -36 53 -45 67 -43 65 -87 337 -76 482 5 78 23 178 31 178 2 0 32 -7 66 -16z
m1061 -207 c38 -35 61 -116 56 -195 -3 -56 -10 -77 -42 -127 -44 -70 -85 -101
-156 -117 -42 -10 -55 -9 -89 7 -57 25 -71 51 -71 135 0 64 4 79 49 169 63
125 92 151 170 151 47 0 63 -4 83 -23z m-568 -1107 c20 -7 26 -16 26 -40 0
-35 -18 -39 -43 -10 -12 15 -29 20 -62 20 -25 0 -45 4 -45 8 0 30 71 43 124
22z m436 -85 c0 -44 -2 -47 -42 -65 -54 -25 -93 -26 -84 -4 3 9 6 19 6 23 0 5
14 27 30 49 24 33 36 42 60 42 29 0 30 -2 30 -45z m-210 -10 c0 -12 -7 -26
-16 -29 -25 -10 -82 -7 -89 4 -3 6 0 10 7 10 8 0 29 11 48 25 37 27 50 25 50
-10z m-142 -70 c16 -59 15 -85 -2 -85 -24 0 -49 104 -29 123 13 14 19 6 31
-38z m468 -80 c-31 -83 -40 -149 -41 -300 0 -88 3 -174 7 -192 7 -29 5 -32
-20 -37 -109 -22 -120 -19 -82 22 11 12 20 26 20 32 0 20 -29 9 -55 -22 -26
-31 -27 -34 -22 -137 6 -141 64 -418 111 -533 20 -48 36 -97 36 -110 0 -29
-37 -91 -50 -83 -5 3 0 21 12 41 11 19 18 37 15 40 -3 3 -16 -13 -29 -35 -13
-22 -29 -41 -36 -41 -10 0 -6 14 12 45 18 30 22 45 14 45 -7 0 -24 -20 -37
-45 -13 -25 -30 -45 -38 -45 -10 0 -9 9 7 40 22 43 24 50 12 50 -4 0 -21 -20
-36 -45 -27 -41 -46 -57 -46 -37 0 5 6 31 14 58 27 92 28 144 7 284 -35 235
-107 436 -170 473 -17 10 -31 22 -31 28 0 14 -26 11 -39 -5 -9 -11 -6 -17 14
-30 14 -9 25 -20 25 -25 0 -7 -210 -31 -219 -25 -2 2 7 20 19 41 47 80 142
324 164 423 17 73 18 75 59 93 39 17 43 17 52 1 6 -9 23 -32 39 -51 25 -29 34
-33 78 -33 48 0 53 3 117 65 50 49 73 65 95 65 21 0 27 -4 22 -15z m974 -468
c0 -1 20 -59 44 -129 31 -87 42 -128 34 -136 -7 -7 8 -65 51 -191 33 -100 61
-188 61 -195 0 -10 -15 -17 -42 -20 -82 -11 -1033 -97 -1093 -99 -54 -2 -60 0
-63 19 -3 18 4 23 35 31 35 8 38 11 35 42 -3 26 1 34 17 38 16 4 21 13 21 38
0 39 -14 35 265 61 260 24 248 25 255 -11 4 -16 14 -47 23 -67 13 -31 21 -38
44 -38 40 0 416 40 421 44 5 5 -95 281 -118 326 -10 19 -21 43 -24 53 -5 14
-13 17 -33 13 -16 -3 -66 -8 -113 -11 -101 -8 -425 -40 -599 -60 -69 -8 -173
-18 -233 -21 l-108 -7 0 26 c0 32 5 33 145 47 187 18 193 20 158 56 -13 13
-14 19 -5 22 14 4 15 38 1 67 -7 15 -8 11 -4 -17 5 -33 3 -38 -17 -42 -33 -7
-194 -20 -253 -20 l-50 -1 0 40 0 40 155 17 c85 9 243 24 350 33 107 9 283 25
390 34 207 20 250 23 250 18z m-1344 -162 c15 -20 25 -37 23 -40 -8 -7 -305
-39 -609 -65 -63 -6 -168 -17 -233 -25 -66 -8 -140 -15 -167 -15 -45 0 -48 1
-55 33 -5 22 -9 26 -12 15 -2 -10 2 -31 10 -47 13 -26 13 -31 -1 -45 -10 -10
-12 -19 -7 -24 8 -7 274 15 920 77 159 16 183 15 190 -10 4 -12 2 -24 -4 -28
-6 -4 -123 -18 -259 -30 -136 -12 -379 -36 -539 -52 -161 -16 -295 -29 -298
-29 -3 0 -5 -10 -5 -23 0 -13 -5 -28 -10 -33 -7 -7 -8 -58 -4 -149 l7 -137 73
6 73 7 7 -36 c8 -43 -10 -43 307 -10 769 79 707 75 707 40 0 -30 3 -29 -210
-50 -91 -8 -355 -36 -587 -62 -232 -25 -428 -43 -436 -40 -11 4 -15 45 -19
211 -4 131 -10 212 -17 220 -8 9 -11 57 -9 142 l3 129 105 13 c139 17 922 89
982 91 43 1 49 -2 74 -34z m234 -39 c0 -3 -4 -8 -10 -11 -5 -3 -10 -1 -10 4 0
6 5 11 10 11 6 0 10 -2 10 -4z m-305 -36 c-3 -5 -13 -10 -21 -10 -8 0 -14 5
-14 10 0 6 9 10 21 10 11 0 17 -4 14 -10z m1265 -40 c0 -19 -54 -45 -71 -34
-13 8 -11 36 3 32 6 -2 20 4 30 14 21 21 38 16 38 -12z m100 10 c0 -14 -7 -20
-23 -20 -13 0 -28 -5 -35 -12 -9 -9 -13 -7 -18 6 -8 21 21 45 54 46 15 0 22
-6 22 -20z m-216 4 c31 -12 18 -39 -24 -51 -32 -8 -40 -8 -40 3 0 8 5 14 10
14 6 0 10 6 10 14 0 8 6 17 13 19 6 3 13 6 14 6 1 1 8 -2 17 -5z m-86 -32 c3
-16 -2 -22 -16 -22 -11 0 -27 -3 -36 -6 -21 -8 -20 11 1 36 22 26 47 22 51 -8z
m-1545 11 c-7 -2 -19 -2 -25 0 -7 3 -2 5 12 5 14 0 19 -2 13 -5z m60 -10 c-7
-2 -21 -2 -30 0 -10 3 -4 5 12 5 17 0 24 -2 18 -5z m1367 -13 c0 -20 -9 -24
-87 -34 -36 -5 -43 -3 -43 10 0 27 31 43 83 44 40 0 47 -3 47 -20z m-155 -15
c0 -16 -9 -21 -47 -26 -26 -4 -51 -10 -57 -13 -16 -10 -22 12 -9 33 15 24 31
30 78 28 28 -2 35 -6 35 -22z m-1538 -1 c-3 -3 -12 -4 -19 -1 -8 3 -5 6 6 6
11 1 17 -2 13 -5z m1363 -13 c0 -15 -12 -20 -61 -28 -50 -8 -62 -7 -66 4 -3 8
-1 19 6 26 8 8 11 7 11 -3 1 -11 3 -11 11 3 7 12 23 17 54 17 37 0 45 -3 45
-19z m769 0 c12 -21 5 -31 -20 -31 -10 0 -25 -8 -35 -17 -17 -17 -17 -17 -11
7 4 14 7 33 7 43 0 24 46 23 59 -2z m-919 -10 c0 -11 -9 -21 -22 -24 -13 -2
-31 -8 -40 -12 -14 -5 -18 -2 -18 15 0 11 5 18 10 15 6 -3 10 1 10 9 0 11 9
16 30 16 23 0 30 -5 30 -19z m823 0 c6 -23 0 -31 -21 -31 -9 0 -24 -7 -34 -17
-10 -9 -18 -11 -18 -5 0 6 -3 17 -6 26 -4 11 -1 16 10 16 9 0 16 7 16 15 0 23
47 19 53 -4z m-930 -4 c8 -21 -8 -39 -29 -35 -11 2 -20 13 -22 26 -3 18 1 22
21 22 14 0 27 -6 30 -13z m826 -6 c12 -22 5 -31 -25 -31 -13 0 -26 -4 -29 -10
-11 -17 -25 -11 -25 11 0 11 4 18 9 15 5 -3 11 3 14 14 7 25 43 26 56 1z
m-101 -13 c-3 -24 -56 -44 -72 -28 -7 7 -6 10 1 10 7 0 15 9 18 20 4 13 15 20
31 20 20 0 25 -4 22 -22z m-934 -5 c8 -21 -1 -29 -41 -36 -28 -6 -33 -4 -33
13 0 35 62 55 74 23z m806 -7 c0 -16 -7 -25 -22 -29 -13 -2 -31 -8 -40 -12
-14 -5 -18 -2 -18 14 0 12 6 21 15 21 8 0 14 3 14 8 -3 17 2 22 26 22 20 0 25
-5 25 -24z m-906 -3 c8 -19 0 -28 -31 -38 -20 -6 -23 -3 -23 24 0 26 4 31 24
31 13 0 27 -8 30 -17z m946 7 c0 -5 -2 -10 -4 -10 -3 0 -8 5 -11 10 -3 6 -1
10 4 10 6 0 11 -4 11 -10z m-1044 -11 c9 -16 -20 -41 -39 -33 -27 10 -21 44 7
44 14 0 28 -5 32 -11z m804 -14 c0 -19 -5 -25 -23 -25 -13 0 -29 -6 -36 -12
-11 -11 -13 -9 -7 12 3 14 6 31 6 38 0 7 13 12 30 12 25 0 30 -4 30 -25z m100
5 c0 -15 -7 -20 -24 -20 -14 0 -28 -4 -31 -10 -9 -15 -25 -12 -25 5 0 8 7 15
15 15 8 0 15 7 15 15 0 9 9 15 25 15 18 0 25 -5 25 -20z m-1115 -10 c9 -29 -2
-40 -40 -40 -32 0 -33 1 -22 25 11 21 22 29 49 34 4 0 9 -8 13 -19z m103 -7
c3 -20 -1 -23 -27 -23 -23 0 -31 5 -31 18 0 25 10 33 35 30 12 -2 21 -12 23
-25z m672 -3 c6 -10 13 -40 16 -65 l7 -45 -61 0 c-33 0 -64 -5 -68 -11 -4 -7
-10 -7 -16 -1 -15 15 27 52 57 52 23 0 25 4 25 45 0 49 20 62 40 25z m110 0
c0 -13 -10 -22 -32 -28 -18 -5 -34 -8 -36 -7 -1 1 2 14 7 29 13 33 61 38 61 6z
m775 3 c14 -13 14 -18 3 -23 -26 -14 -68 -20 -68 -10 0 5 4 10 9 10 5 0 11 9
14 20 6 24 20 25 42 3z m40 7 c3 -5 1 -10 -4 -10 -6 0 -11 5 -11 10 0 6 2 10
4 10 3 0 8 -4 11 -10z m-1801 -16 c9 -24 -2 -34 -40 -34 -37 0 -39 2 -24 31
13 23 55 25 64 3z m789 -5 c4 -15 -1 -22 -18 -29 -43 -17 -59 -16 -63 4 -3 14
0 17 11 13 9 -3 17 2 20 14 7 26 43 25 50 -2z m877 17 c0 -2 3 -11 6 -20 4
-10 1 -16 -7 -16 -8 0 -26 -6 -41 -14 -23 -12 -27 -12 -32 0 -8 20 24 54 51
54 13 0 23 -2 23 -4z m-1884 -52 c-3 -8 -18 -14 -35 -14 -29 0 -30 1 -19 24
19 44 71 34 54 -10z m112 24 c-2 -19 -10 -24 -41 -26 -37 -3 -37 -3 -25 22 8
19 19 26 40 26 25 0 29 -4 26 -22z m1682 -9 c0 -14 -7 -19 -28 -19 -15 0 -33
-5 -40 -12 -9 -9 -13 -7 -18 5 -7 20 15 44 47 49 31 5 39 1 39 -23z m-112 -7
c3 -17 -1 -22 -20 -22 -13 0 -29 -5 -36 -12 -9 -9 -12 -6 -12 15 0 46 62 64
68 19z m-1780 -4 c-2 -19 -10 -24 -40 -26 -42 -4 -44 -1 -26 28 8 12 24 20 41
20 24 0 28 -4 25 -22z m792 -2 c0 -19 -7 -26 -31 -31 -30 -7 -56 3 -31 12 6 3
12 11 12 18 0 13 14 23 38 24 6 1 12 -10 12 -23z m60 -2 c0 -8 -4 -14 -10 -14
-5 0 -10 9 -10 21 0 11 5 17 10 14 6 -3 10 -13 10 -21z m800 -5 c0 -14 -7 -19
-24 -19 -14 0 -28 -4 -31 -10 -11 -17 -25 -11 -25 11 0 11 5 17 10 14 6 -3 10
-1 10 5 0 12 41 30 53 23 4 -2 7 -13 7 -24z m-1862 -15 c-2 -12 -13 -20 -31
-22 -22 -3 -27 1 -27 18 0 12 9 24 23 29 26 10 40 0 35 -25z m100 14 c-3 -24
-42 -38 -59 -21 -18 18 2 43 33 43 25 0 29 -4 26 -22z m792 -3 c0 -22 -4 -25
-34 -25 -29 0 -33 3 -29 19 4 17 13 22 56 30 4 0 7 -10 7 -24z m868 -3 c3 -18
-2 -22 -22 -22 -14 0 -28 -5 -31 -10 -8 -13 -25 -3 -25 15 0 9 6 12 15 9 9 -4
15 0 15 9 0 33 43 32 48 -1z m-973 -6 c0 -13 -10 -22 -29 -27 -37 -10 -40 -8
-25 25 15 32 54 33 54 2z m869 7 c8 -21 -1 -29 -41 -38 -37 -8 -42 4 -16 35
21 24 49 26 57 3z m-969 -18 c0 -11 -11 -22 -28 -28 -34 -11 -38 -8 -31 20 9
35 59 41 59 8z m-908 -32 c-3 -10 -5 -2 -5 17 0 19 2 27 5 18 2 -10 2 -26 0
-35z m806 28 c6 -25 0 -31 -29 -31 -27 0 -36 12 -28 34 9 23 51 20 57 -3z
m937 15 c0 -2 3 -11 6 -20 4 -12 0 -16 -16 -16 -12 0 -30 -5 -41 -10 -16 -9
-19 -7 -19 8 0 10 10 24 23 30 23 11 47 15 47 8z m808 -35 c16 -50 15 -51 -7
-51 -11 0 -26 -7 -34 -14 -13 -13 -17 -10 -32 25 -10 21 -15 42 -12 45 4 4 11
-5 16 -20 6 -14 13 -26 17 -26 6 0 0 33 -12 64 -5 12 0 16 23 16 26 0 31 -5
41 -39z m32 11 c0 -15 -2 -15 -10 -2 -13 20 -13 33 0 25 6 -3 10 -14 10 -23z
m-1890 -11 c0 -12 -9 -20 -27 -24 -34 -6 -34 -6 -27 20 10 36 54 38 54 4z
m1745 19 c3 -6 -2 -13 -12 -16 -10 -3 -26 -10 -35 -15 -23 -12 -28 -11 -28 2
0 28 61 51 75 29z m-1848 -34 c-4 -9 -18 -16 -32 -16 -33 0 -36 37 -2 42 28 5
41 -6 34 -26z m1641 11 c2 -11 -3 -17 -17 -17 -11 0 -23 -4 -26 -10 -9 -15
-25 -12 -25 4 0 17 40 48 55 43 5 -2 11 -11 13 -20z m112 13 c0 -21 -80 -44
-87 -24 -4 13 33 32 65 33 12 1 22 -3 22 -9z m-1860 -24 c0 -24 -23 -41 -41
-30 -5 3 -9 16 -9 30 0 19 5 24 25 24 20 0 25 -5 25 -24z m986 13 c3 -6 2 -15
-4 -21 -7 -7 -14 -3 -21 11 -10 17 -9 21 3 21 8 0 18 -5 22 -11z m-1088 -24
c4 -20 -14 -35 -44 -35 -17 0 -20 5 -17 24 7 37 55 46 61 11z m882 0 c0 -16
-35 -29 -50 -20 -18 11 -11 34 13 37 28 5 37 1 37 -17z m-112 -7 c-2 -17 -11
-24 -30 -26 -35 -4 -39 24 -5 38 34 14 39 12 35 -12z m-878 -8 c0 -14 -9 -20
-37 -25 -21 -3 -50 -8 -65 -10 -16 -3 -28 0 -28 6 0 6 5 7 10 4 6 -3 10 2 10
13 0 28 8 32 62 32 41 0 48 -3 48 -20z m667 -5 c7 -19 5 -22 -30 -30 -20 -5
-27 -3 -27 7 0 33 46 51 57 23z m111 -2 c-2 -12 -14 -19 -36 -21 -27 -3 -32 0
-32 17 0 17 6 21 36 21 28 0 35 -3 32 -17z m-213 -13 c0 -9 -11 -16 -27 -18
-27 -3 -38 14 -21 32 12 12 48 2 48 -14z m1525 6 c0 -14 -60 -26 -126 -26 -19
0 -34 -4 -34 -10 0 -5 -4 -10 -10 -10 -14 0 -12 19 4 35 13 13 49 20 129 23
25 1 37 -2 37 -12z m100 4 c0 -5 -10 -10 -21 -10 -12 0 -28 -8 -35 -17 -9 -12
-13 -13 -14 -5 0 7 6 19 13 27 14 16 57 20 57 5z m-1746 -6 c29 -11 17 -32
-20 -36 -19 -2 -37 0 -40 4 -3 4 0 8 5 8 6 0 11 7 11 15 0 16 17 19 44 9z
m866 -7 c0 -17 -89 -32 -103 -18 -17 17 1 27 52 30 38 1 51 -2 51 -12z m-1060
-20 c0 -21 -22 -37 -52 -37 -33 0 -34 3 -11 30 19 22 63 27 63 7z m104 4 c7
-11 -12 -26 -41 -34 -19 -4 -23 -1 -23 19 0 20 5 24 29 24 17 0 32 -4 35 -9z
m586 -21 c0 -15 -7 -20 -25 -20 -29 0 -35 26 -7 33 30 8 32 7 32 -13z m98 8
c-3 -7 -20 -14 -39 -16 -32 -2 -33 -1 -15 13 24 18 59 20 54 3z m-1001 -14 c9
-24 -15 -34 -80 -34 -50 0 -58 2 -55 18 2 13 17 18 58 23 30 3 59 6 63 7 4 1
10 -5 14 -14z m93 2 c0 -14 -34 -28 -44 -18 -15 14 -4 32 19 32 15 0 25 -6 25
-14z m598 -20 c3 -14 -2 -17 -24 -14 -32 4 -43 24 -17 31 27 7 38 2 41 -17z
m110 12 c-7 -20 -58 -23 -58 -4 0 11 10 16 31 16 20 0 29 -4 27 -12z m-210
-15 c-2 -12 -14 -19 -35 -21 -27 -3 -31 -1 -26 17 7 28 66 31 61 4z m647 -3
c8 -14 -21 -24 -42 -15 -17 7 -16 8 2 15 27 12 33 12 40 0z m-1390 -10 c3 -5
1 -10 -4 -10 -6 0 -11 5 -11 10 0 6 2 10 4 10 3 0 8 -4 11 -10z m520 -10 c0
-18 -33 -26 -47 -12 -6 6 -7 15 -3 22 10 16 50 8 50 -10z m115 5 c0 -10 -11
-15 -35 -15 -33 0 -43 8 -28 23 13 14 63 7 63 -8z m-214 -24 c-4 -6 -18 -11
-32 -11 -31 0 -32 27 -1 32 26 5 42 -6 33 -21z m-119 2 c4 -12 -34 -29 -44
-19 -3 3 -3 12 1 21 7 18 37 17 43 -2z m843 8 c0 -14 -24 -19 -125 -26 -49 -3
-126 -10 -170 -15 -44 -6 -168 -19 -275 -30 -107 -11 -212 -23 -234 -26 -37
-7 -38 -6 -27 14 15 28 7 26 331 56 151 15 289 28 305 30 67 7 195 5 195 -3z
m-940 -26 c0 -8 -6 -15 -12 -16 -7 0 -48 -4 -90 -7 -70 -7 -78 -6 -78 10 0 18
25 23 128 26 40 2 52 -1 52 -13z m-190 -29 c0 -8 -4 -18 -10 -21 -5 -3 -10 3
-10 14 0 12 5 21 10 21 6 0 10 -6 10 -14z m238 -33 c-2 -14 -17 -19 -58 -24
-52 -6 -79 -1 -52 8 6 3 12 11 12 19 0 10 14 14 51 14 43 0 50 -3 47 -17z
m2157 -4 c-26 -6 -49 -21 -69 -46 -45 -55 -115 -83 -206 -83 -55 0 -87 6 -120
22 -56 26 -133 28 -177 5 l-33 -18 0 36 c0 19 4 35 9 35 8 0 139 14 511 53 19
2 55 4 80 4 l45 1 -40 -9z m-715 -87 c0 -35 -32 -127 -68 -197 -66 -127 -248
-285 -328 -285 -41 0 -67 23 -99 88 -21 41 -31 52 -50 52 -23 0 -24 -2 -14
-27 26 -70 127 -229 185 -292 47 -51 76 -73 110 -85 52 -17 68 -13 59 14 -5
16 3 22 50 35 45 13 62 14 91 5 45 -15 50 -30 30 -81 -25 -62 -144 -170 -281
-256 -109 -69 -349 -110 -519 -89 -64 8 -86 25 -86 66 0 65 90 110 284 144 82
15 156 32 163 38 10 8 27 8 66 -1 64 -16 111 -12 115 10 2 11 -23 28 -87 57
-50 23 -108 58 -131 78 -50 45 -137 175 -180 269 -18 39 -36 76 -39 84 -21 45
-37 -43 -17 -98 8 -23 7 -23 -35 -16 -153 24 -295 79 -390 152 -51 39 -112
113 -128 156 -13 33 -14 77 -3 77 4 0 142 13 307 30 343 33 393 36 455 22 25
-5 66 -12 93 -16 44 -5 50 -3 89 32 38 34 47 37 117 43 42 3 113 6 159 7 73 2
82 0 82 -16z m-1750 -503 c103 -29 188 -60 255 -94 107 -54 110 -58 90 -127
-14 -51 23 -32 63 32 86 140 154 240 163 240 5 0 29 -13 54 -28 l46 -28 -21
-27 c-37 -46 -130 -210 -130 -228 0 -10 16 -44 36 -77 31 -53 35 -66 32 -118
-3 -51 -6 -60 -30 -73 -91 -51 -411 102 -663 317 -109 93 -164 189 -141 248 9
23 58 16 246 -37z m781 -48 c24 -10 88 -26 141 -35 128 -21 139 -26 184 -82
22 -26 54 -64 72 -84 33 -38 42 -70 20 -70 -7 0 -61 -7 -120 -15 -153 -20
-248 -66 -304 -146 -23 -34 -26 -46 -21 -87 4 -26 9 -57 13 -69 6 -21 4 -22
-27 -13 -19 6 -60 10 -91 10 -31 0 -60 4 -63 10 -3 5 0 10 9 10 8 0 26 14 40
31 21 25 26 41 26 85 0 60 -31 163 -61 205 -25 36 -24 53 6 97 14 20 25 40 25
45 0 8 46 83 69 110 18 22 28 21 82 -2z m1209 -535 c18 -7 29 -16 24 -19 -10
-6 -74 18 -74 28 0 8 16 6 50 -9z m-1740 -12 c0 -2 -11 -4 -25 -4 -14 0 -25 4
-25 9 0 4 11 6 25 3 14 -2 25 -6 25 -8z m213 -15 c26 -6 47 -15 47 -18 0 -4
14 -6 30 -3 23 3 30 0 30 -12 0 -22 -68 -23 -76 -1 -4 8 -30 22 -60 31 -30 8
-54 18 -54 20 0 3 8 3 18 0 9 -3 38 -10 65 -17z m-49 -55 c11 -28 7 -34 -21
-34 -25 1 -26 2 -11 14 13 10 15 15 6 24 -9 9 -8 12 4 12 9 0 19 -7 22 -16z
m1036 6 c0 -5 -4 -10 -10 -10 -5 0 -10 5 -10 10 0 6 5 10 10 10 6 0 10 -4 10
-10z m-1114 -22 c4 -5 -4 -8 -17 -6 -12 1 -24 8 -26 15 -5 14 34 6 43 -9z
m-72 6 c9 -3 13 -10 10 -15 -8 -14 -58 -11 -80 6 -18 13 -17 14 18 15 20 0 43
-3 52 -6z m629 -1 c-7 -2 -21 -2 -30 0 -10 3 -4 5 12 5 17 0 24 -2 18 -5z
m-895 -19 c12 -4 22 -11 22 -16 0 -14 -53 -5 -58 10 -4 13 2 15 36 6z m1622
-25 c0 -5 -4 -9 -10 -9 -5 0 -10 7 -10 16 0 8 5 12 10 9 6 -3 10 -10 10 -16z
m-1520 1 c0 -5 -4 -10 -10 -10 -5 0 -10 5 -10 10 0 6 5 10 10 10 6 0 10 -4 10
-10z m175 -20 c-3 -5 -10 -10 -16 -10 -5 0 -9 5 -9 10 0 6 7 10 16 10 8 0 12
-4 9 -10z m360 0 c3 -5 -3 -10 -14 -10 -11 0 -23 5 -26 10 -3 6 3 10 14 10 11
0 23 -4 26 -10z m629 -11 c14 -7 23 -16 20 -21 -3 -4 -9 -6 -14 -3 -4 3 -39 5
-76 6 -78 1 -104 6 -104 20 0 13 144 11 174 -2z"/>
<path d="M3638 3890 c-40 -12 -110 -66 -137 -105 -31 -46 -41 -132 -16 -141
12 -5 26 4 48 31 37 46 81 65 146 65 38 0 56 -6 78 -24 24 -21 27 -31 28 -84
0 -43 -5 -65 -17 -79 -23 -25 -23 -46 0 -66 25 -23 68 -21 91 2 59 59 27 283
-51 358 -52 50 -104 63 -170 43z"/>
<path d="M3597 3254 c-35 -30 -79 -31 -143 -4 -53 23 -62 20 -46 -15 25 -55
139 -92 187 -61 24 16 51 84 37 98 -4 3 -20 -4 -35 -18z"/>
<path d="M2928 3937 c-44 -27 -110 -105 -106 -125 6 -31 26 -22 62 27 40 54
61 67 83 50 18 -15 49 12 40 35 -12 31 -41 36 -79 13z"/>
<path d="M2911 3819 c-40 -44 -32 -109 15 -109 53 0 97 83 62 118 -18 18 -55
14 -77 -9z"/>
<path d="M3930 2043 c0 -24 5 -28 29 -30 l30 -2 -17 29 c-21 38 -42 39 -42 3z"/>
<path d="M3893 2033 c-14 -29 -9 -43 8 -26 6 6 9 20 7 32 -3 19 -4 19 -15 -6z"/>
<path d="M2080 66 c0 -8 9 -18 20 -21 25 -8 26 -21 3 -34 -13 -8 3 -10 62 -11
55 0 75 3 65 10 -8 5 -28 10 -43 10 -20 0 -30 6 -34 19 -3 11 -19 25 -35 30
-39 14 -38 14 -38 -3z"/>
<path d="M1590 34 c0 -14 10 -15 73 -11 39 3 73 6 75 6 2 1 0 6 -3 11 -3 6
-37 10 -76 10 -57 0 -69 -3 -69 -16z"/>
<path d="M1830 25 c0 -13 10 -14 58 -9 83 9 88 24 9 24 -53 0 -67 -3 -67 -15z"/>
</g>
</svg>
